<?xml version="1.0" encoding="UTF-8"?>
<svg version="1.1" xmlns="http://www.w3.org/2000/svg" width="2000" height="2000">
<path d="M0 0 C0.98001466 -0.00445784 1.96002933 -0.00891569 2.9697414 -0.01350862 C4.04394319 -0.01332426 5.11814498 -0.01313989 6.22489834 -0.01294994 C7.36803303 -0.01662663 8.51116772 -0.02030332 9.68894285 -0.02409142 C12.86251744 -0.03320873 16.03606163 -0.03782587 19.20964706 -0.04048073 C22.63245849 -0.04438816 26.05525501 -0.05396626 29.47805691 -0.0626936 C37.74495732 -0.08244664 46.01185893 -0.09252319 54.27877703 -0.10142139 C58.17397987 -0.10580658 62.06918136 -0.11117283 65.96438313 -0.11641026 C78.91698487 -0.13342212 91.86958577 -0.14791529 104.82219696 -0.155159 C108.18270335 -0.15706882 111.54320973 -0.15898917 114.90371609 -0.16094494 C116.15653908 -0.16167055 116.15653908 -0.16167055 117.43467163 -0.16241082 C130.95823513 -0.17070738 144.48171006 -0.19603814 158.0052349 -0.22852562 C171.89665887 -0.26162416 185.78803788 -0.27961032 199.67950147 -0.28280324 C207.47613354 -0.28496585 215.2726365 -0.29367793 223.06923008 -0.31926441 C229.71063067 -0.34100973 236.35187079 -0.34900311 242.99330295 -0.33929763 C246.37911381 -0.33476371 249.76432636 -0.33878304 253.15013599 -0.35605907 C256.82914275 -0.37377767 260.50731637 -0.36667066 264.18632412 -0.35352612 C265.24491086 -0.36449536 266.30349759 -0.37546461 267.39416271 -0.38676625 C278.7152348 -0.28945289 287.94123166 3.27812159 296.15005398 11.13422108 C303.72822485 19.42284547 307.26733375 28.65378329 307.28427505 39.81953907 C307.28662729 40.48156765 307.28897952 41.14359623 307.29140303 41.82568628 C307.29806884 44.04776977 307.29763553 46.26979446 307.297225 48.49188709 C307.30052513 50.09973521 307.30425102 51.7075825 307.30836648 53.31542873 C307.31837764 57.73705062 307.32210185 62.15865894 307.32475579 66.58029056 C307.32866148 71.34805454 307.33823966 76.11580781 307.34696865 80.88356495 C307.3667259 92.39962507 307.37679848 103.91568605 307.38569644 115.43175888 C307.39008068 120.85636356 307.39544715 126.28096727 307.40068531 131.70557117 C307.41769709 149.74088812 307.43219085 167.77620447 307.43943405 185.81152821 C307.44134391 190.49119537 307.44326425 195.17086253 307.44521999 199.85052967 C307.44570373 201.0136225 307.44618747 202.17671534 307.44668587 203.37505341 C307.45498461 222.21267496 307.48031914 241.05023298 307.51280067 259.8878268 C307.5458847 279.23273143 307.56388404 298.57760378 307.56707829 317.92253685 C307.56924217 328.78204825 307.57797302 339.64146701 307.60353947 350.50095081 C307.62526482 359.75021723 307.63328784 368.99936849 307.62357268 378.24865752 C307.61903329 382.96521344 307.62089327 387.68153186 307.64033413 392.39805508 C307.65800439 396.72249255 307.65693692 401.04651996 307.64143684 405.37096202 C307.63906661 406.92891205 307.64335373 408.48689077 307.65526549 410.04479706 C307.74769671 422.94049058 306.42489431 435.43196875 297.15005398 445.13422108 C287.51750603 454.84670718 277.42780952 458.3204174 263.877496 458.41103208 C262.8464593 458.40793488 261.8154226 458.40483767 260.75314236 458.40164661 C259.07702613 458.40844328 259.07702613 458.40844328 257.36704898 458.41537726 C253.63875028 458.42799428 249.91059817 458.42640261 246.18228054 458.42474842 C243.50256723 458.43073534 240.82286521 458.43748514 238.14315701 458.44510365 C231.62884921 458.46167208 225.11457762 458.4672113 218.60025051 458.4683284 C213.30165836 458.46928084 208.0030781 458.47340087 202.70448971 458.47972965 C187.66102785 458.4973306 172.61759445 458.5065703 157.57412222 458.5050687 C156.76418947 458.50498879 155.95425671 458.50490888 155.11978054 458.50482655 C153.90338719 458.5047039 153.90338719 458.5047039 152.66242024 458.50457878 C139.52527718 458.50376617 126.38824885 458.52290051 113.25113896 458.55110328 C99.74148485 458.57987552 86.23188662 458.59364119 72.72220111 458.59191573 C65.14579815 458.59125333 57.56951548 458.59667946 49.99314022 458.61827183 C43.54185023 458.63654086 37.09073506 458.64078427 30.63943031 458.62725298 C27.35263435 458.62075198 24.06624048 458.62270288 20.77946377 458.63795948 C-12.16808361 458.78094259 -12.16808361 458.78094259 -25.84994602 446.13422108 C-35.13260289 435.57519889 -36.4415008 423.39150182 -36.35788059 409.88971424 C-36.36249601 408.25875846 -36.36885322 406.62780684 -36.37678957 404.99686384 C-36.39341804 400.53921729 -36.38526619 396.08191527 -36.3728447 391.62426782 C-36.36376987 386.80754996 -36.37777598 381.99089007 -36.38876438 377.17418385 C-36.40652825 367.74776961 -36.40271911 358.32148294 -36.39111382 348.89506376 C-36.38207138 341.23236603 -36.38085901 333.56970399 -36.38520908 325.90700245 C-36.38582202 324.8154011 -36.38643495 323.72379975 -36.38706645 322.59911957 C-36.38834539 320.38138448 -36.38964224 318.1636494 -36.39095682 315.94591433 C-36.40235637 295.16203101 -36.3892587 274.37821832 -36.36775535 253.59434658 C-36.34988495 235.77020037 -36.35298924 217.94615838 -36.3714304 200.12201405 C-36.39284812 179.41127129 -36.4012578 158.70059041 -36.38898134 137.98983812 C-36.38770718 135.78037199 -36.38644969 133.57090585 -36.38520908 131.3614397 C-36.38459198 130.27440885 -36.38397488 129.18737799 -36.38333908 128.0674068 C-36.37988889 120.41606385 -36.38570739 112.76476021 -36.3951273 105.11342335 C-36.40635866 95.78590675 -36.40328325 86.45852475 -36.38200432 77.13102353 C-36.37150928 72.3741831 -36.36734572 67.61756691 -36.38060093 62.86072826 C-36.39256267 58.50207216 -36.38590024 54.14384713 -36.36469072 49.78522986 C-36.36024064 48.21269933 -36.36245492 46.64013201 -36.37219387 45.06762534 C-36.45243887 31.02851726 -33.92278446 20.46306919 -24.00228977 10.22797108 C-17.24991452 3.89174619 -9.33579295 0.01973424 0 0 Z " fill="#EE4224" transform="translate(357.8499460220337,249.86577892303467)"/>
<path d="M0 0 C0.75657981 0.00367098 1.51315961 0.00734197 2.29266608 0.01112419 C10.22092678 0.06848126 18.13895457 0.33166844 26.06112671 0.63084412 C27.65213568 0.6886022 29.24315471 0.74608351 30.83418274 0.80331421 C34.22681771 0.92593132 37.61937504 1.05045465 41.01188278 1.17654228 C46.41633751 1.37738857 51.82094928 1.573773 57.22558594 1.76965332 C65.81074045 2.08131647 74.39578628 2.39586698 82.98078883 2.71168572 C98.2625095 3.27381578 113.54437536 3.83196188 128.82633173 4.38764578 C134.1576392 4.58162785 139.48888866 4.77710514 144.82008755 4.97404796 C148.1704053 5.09750349 151.52077629 5.21948306 154.87114644 5.34150708 C157.29456006 5.43058567 159.71786896 5.52219204 162.14118004 5.61401272 C170.18393165 5.91315441 178.22197563 6.14234397 186.2694397 6.26515198 C188.66532305 6.30848917 191.06118152 6.35302807 193.45703816 6.39781487 C195.67977859 6.43290286 197.90198622 6.44722703 200.12494469 6.46066952 C208.11955785 6.57117283 215.85895125 6.84906991 221.96355629 12.61336613 C226.08495781 17.36965963 226.50252189 20.58123076 226.44638062 26.65061951 C226.44069313 27.78695328 226.44069313 27.78695328 226.43489075 28.94624329 C226.38385903 36.32692575 226.21091389 43.70363095 225.98422241 51.08079529 C225.91883156 53.22767251 225.85914383 55.37465867 225.79989624 57.52171326 C225.69981808 61.02599627 225.57486369 64.5287121 225.43447876 68.03160095 C225.38208428 69.41929563 225.33674637 70.807273 225.29812622 72.19541931 C225.24043415 74.22325692 225.15851691 76.24886001 225.07138062 78.27561951 C225.03005005 79.44592712 224.98871948 80.61623474 224.94613647 81.82200623 C223.94432065 87.38488417 220.55530076 91.4389441 216.35653687 95.09593201 C212.99363212 96.21690025 210.45360451 96.22979402 206.9083252 96.23849487 C206.25310088 96.2406477 205.59787656 96.24280053 204.92279696 96.2450186 C202.7276445 96.24927829 200.53264035 96.24455139 198.3374939 96.23826599 C197.5686796 96.23727492 196.79986531 96.23628385 196.00775361 96.23526275 C176.84545493 96.20042997 157.70419164 95.5746718 138.5549674 94.91728902 C133.60403334 94.74842089 128.65289354 94.58578344 123.70178223 94.42221069 C115.42738286 94.14793391 107.15314495 93.86916453 98.8789978 93.58738708 C89.33844409 93.2625241 79.79768508 92.94434591 70.25678813 92.62973601 C61.00192159 92.32446179 51.74719264 92.01520358 42.49252701 91.70390129 C38.58131801 91.57236788 34.67007015 91.44209378 30.75878525 91.3128376 C26.17004194 91.16096655 21.58143144 91.00555673 16.99289894 90.84744835 C15.31640573 90.79022063 13.63987212 90.734162 11.96329689 90.67938995 C-12.06953595 89.89210191 -12.06953595 89.89210191 -17.64346313 85.09593201 C-22.05038598 79.25973688 -22.80317478 75.00154694 -22.75283813 67.86155701 C-22.74935364 67.02682861 -22.74586914 66.19210022 -22.74227905 65.33207703 C-22.67509579 55.82290989 -22.39233109 46.32224982 -22.00869751 36.82102966 C-21.9310538 34.81644011 -21.86155839 32.81152037 -21.79971313 30.80638123 C-21.70830245 27.8550539 -21.59265502 24.90554896 -21.47158813 21.95530701 C-21.44848572 21.06671997 -21.4253833 20.17813293 -21.40158081 19.26261902 C-21.12616741 13.4473899 -20.01747891 9.87745596 -16.64346313 5.09593201 C-11.06408621 0.76906827 -6.8812242 -0.06076721 0 0 Z " fill="#FEFEFE" transform="translate(388.6434631347656,372.90406799316406)"/>
<path d="M0 0 C0.73079928 0.00021737 1.46159857 0.00043474 2.21454328 0.00065869 C3.05740701 -0.0039401 3.90027075 -0.0085389 4.7686758 -0.01327705 C5.69988654 -0.00813349 6.63109728 -0.00298993 7.59052652 0.0023095 C9.06823563 -0.00131212 9.06823563 -0.00131212 10.57579744 -0.00500691 C13.89782548 -0.01067127 17.21966355 -0.00196018 20.54168314 0.00662774 C22.9147102 0.00555554 25.28773701 0.00361779 27.66076273 0.00087517 C33.44944804 -0.00348051 39.2380713 0.00148293 45.02674974 0.01072548 C51.7617343 0.02109372 58.49670644 0.02103971 65.23169749 0.0205529 C77.24438055 0.02005195 89.25703702 0.02922299 101.26971048 0.04373711 C112.9383352 0.05782834 124.60693651 0.06490778 136.27556986 0.06424493 C136.99434494 0.06420497 137.71312002 0.06416501 138.45367617 0.06412385 C139.17118314 0.06408349 139.8886901 0.06404314 140.6279397 0.06400156 C153.89563577 0.06331248 167.16332184 0.06919699 180.43101468 0.07815478 C185.13088933 0.08117654 189.83076216 0.08223497 194.53063768 0.08268708 C200.84983139 0.08368798 207.16900029 0.08976375 213.48818582 0.09985322 C215.81468613 0.10278632 218.14118928 0.10400196 220.46769136 0.10342568 C223.62894317 0.10293875 226.79012435 0.10855335 229.95136636 0.11583489 C231.35152855 0.11351199 231.35152855 0.11351199 232.77997684 0.11114216 C239.09327613 0.13536917 239.09327613 0.13536917 240.20745462 1.24954766 C240.30781278 3.76957217 240.34363174 6.26220966 240.33684915 8.78275079 C240.33947763 9.96561921 240.33947763 9.96561921 240.34215921 11.17238396 C240.3465782 13.79187726 240.34363958 16.41130362 240.34026712 19.03079766 C240.34094015 20.84301296 240.34191016 22.65522818 240.34316629 24.46744317 C240.34464333 28.27063385 240.34248852 32.0738011 240.33782572 35.87698907 C240.33212842 40.76333261 240.3354074 45.64962123 240.34139818 50.53596276 C240.34500364 54.27960155 240.34386528 58.02322721 240.34127039 61.76686639 C240.34060108 63.56908203 240.34142969 65.37129884 240.34374994 67.17351311 C240.34627622 69.68782257 240.34243624 72.20204183 240.33684915 74.71634454 C240.33887338 75.46858804 240.34089761 76.22083153 240.34298319 76.99587029 C240.32171722 82.13528506 240.32171722 82.13528506 239.20745462 83.24954766 C236.11488268 83.35204339 233.04449821 83.38839201 229.95136636 83.38326043 C228.96778695 83.38552599 227.98420754 83.38779154 226.97082269 83.39012575 C223.64807701 83.39649718 220.32537178 83.39563439 217.00262064 83.39481133 C214.63136358 83.39780086 212.26010702 83.4012029 209.88885111 83.40498894 C204.10038213 83.41293166 198.31192561 83.4160445 192.52345145 83.41660132 C187.82049642 83.41707573 183.11754475 83.41912671 178.41459078 83.42230195 C165.0942842 83.43111284 151.77398569 83.43572064 138.45367617 83.43497147 C137.73490109 83.43493152 137.016126 83.43489156 136.27556986 83.43485039 C135.55592182 83.43480951 134.83627378 83.43476863 134.09481823 83.43472651 C122.42737208 83.43431992 110.75995819 83.44389177 99.09252138 83.45798876 C87.12564643 83.47233399 75.15878724 83.47925997 63.19190347 83.47839499 C56.46811077 83.47806237 49.74435187 83.48083744 43.02056688 83.49157304 C36.69972967 83.5012128 30.37896413 83.5013617 24.05812448 83.4940564 C21.73204247 83.49300542 19.40595609 83.49540361 17.07988161 83.50141686 C13.91667734 83.50906753 10.75372488 83.5045383 7.59052652 83.49678582 C6.65931578 83.50192938 5.72810505 83.50707295 4.7686758 83.51237237 C3.92581207 83.50777358 3.08294834 83.50317478 2.21454328 83.49843663 C1.483744 83.498654 0.75294472 83.49887137 0 83.49909532 C-1.79254538 83.24954766 -1.79254538 83.24954766 -3.79254538 81.24954766 C-3.99081988 78.73082774 -4.06533995 76.322071 -4.05133444 73.80228204 C-4.05483908 73.03467049 -4.05834372 72.26705895 -4.06195456 71.47618645 C-4.07077706 68.93179895 -4.06492097 66.38768813 -4.05817038 63.84329766 C-4.05951688 62.07974731 -4.06145729 60.31619732 -4.06396872 58.55264825 C-4.06692068 54.85375981 -4.06262004 51.15496786 -4.05328757 47.45609063 C-4.04189297 42.7076986 -4.04845206 37.95953264 -4.06043249 33.21114892 C-4.06764916 29.56868307 -4.06536406 25.92627108 -4.06017691 22.28380364 C-4.05883987 20.53265388 -4.06049 18.78149927 -4.06513602 17.03035516 C-4.0701981 14.58570885 -4.06249569 12.14143198 -4.05133444 9.69681329 C-4.0553829 8.96843758 -4.05943136 8.24006188 -4.06360251 7.48961419 C-4.00477628 0.55752148 -4.00477628 0.55752148 0 0 Z " fill="#FEFEFE" transform="translate(393.79254537820816,478.7504523396492)"/>
<path d="M0 0 C0.83665459 -0.00720654 1.67330918 -0.01441309 2.53531694 -0.02183801 C3.4544687 -0.01446372 4.37362046 -0.00708944 5.32062531 0.00050831 C6.78524869 -0.0054533 6.78524869 -0.0054533 8.27946043 -0.01153535 C11.5661553 -0.02119474 14.85242364 -0.00931809 18.13910675 0.00241566 C20.4893332 -0.0000111 22.83955863 -0.00372929 25.18978119 -0.00864697 C31.58428396 -0.01807542 37.97863419 -0.00861406 44.37312508 0.00468516 C50.37762693 0.01610918 56.38213303 0.01238818 62.38664216 0.01048265 C74.2844622 0.00729139 86.18222242 0.01896827 98.08002472 0.03854847 C109.63115003 0.05755321 121.18220521 0.06463619 132.73334503 0.05905628 C145.3047592 0.0530015 157.87614251 0.05317003 170.44755411 0.06454211 C177.10483043 0.07054049 183.76208663 0.07420647 190.41936493 0.07157421 C196.67704596 0.06969525 202.93463657 0.07776496 209.19229698 0.09363461 C211.49376743 0.09788946 213.79524703 0.09871999 216.09671974 0.0959444 C219.22882833 0.09273923 222.36066394 0.10176237 225.49274445 0.1140337 C226.87147208 0.10836471 226.87147208 0.10836471 228.27805281 0.1025812 C229.53303469 0.11132949 229.53303469 0.11132949 230.81336975 0.12025452 C231.53662964 0.12112129 232.25988954 0.12198807 233.00506639 0.12288111 C234.90668488 0.37473011 234.90668488 0.37473011 237.90668488 2.37473011 C238.20397729 4.87739284 238.30597841 7.13355968 238.27899933 9.63840199 C238.28264999 10.38650639 238.28630066 11.13461079 238.29006195 11.90538502 C238.29818599 14.38497903 238.28454247 16.86392332 238.26996613 19.34348011 C238.26944774 21.06218942 238.26996461 22.78089932 238.27147675 24.49960804 C238.27138694 28.10439353 238.26094054 31.70895577 238.24286652 35.31369495 C238.22017898 39.94103591 238.21963431 44.56805045 238.22638416 49.19543171 C238.22972109 52.74526352 238.2230993 56.29502051 238.21325493 59.84483814 C238.20939785 61.55132627 238.20825681 63.25782271 238.20984077 64.96431446 C238.21021046 67.3467245 238.1976189 69.72871155 238.18134308 72.11105824 C238.1838205 72.82073246 238.18629791 73.53040668 238.1888504 74.26158619 C238.13542684 79.14598814 238.13542684 79.14598814 235.90668488 81.37473011 C232.76731209 81.57516084 229.71581147 81.64824572 226.5750351 81.63542652 C225.59539038 81.63925207 224.61574566 81.64307762 223.60641474 81.64701909 C220.30288674 81.65739032 216.99953122 81.65334914 213.69599152 81.64938831 C211.33606047 81.65373251 208.97613083 81.65891466 206.61620331 81.66487598 C200.85894005 81.67691168 195.10173106 81.67941357 189.34445674 81.67707572 C184.66632208 81.67529515 179.98819763 81.67703657 175.31006432 81.68130016 C174.31263999 81.68219295 174.31263999 81.68219295 173.29506568 81.68310377 C171.94436594 81.68431548 170.5936662 81.68552961 169.24296647 81.68674614 C156.56608854 81.69763134 143.88923719 81.69545458 131.21235775 81.6893613 C119.6070631 81.68419146 108.00185237 81.69544757 96.39657433 81.71445952 C84.4895479 81.73381674 72.58256121 81.74209763 60.67551893 81.73833627 C53.98691039 81.73642097 47.29836283 81.73920636 40.60976601 81.7530508 C34.32170943 81.76557824 28.03382142 81.7637334 21.74576759 81.75063992 C19.43300572 81.74826346 17.12023217 81.75104673 14.80748367 81.75926304 C11.65989643 81.76964204 8.51288414 81.76170124 5.3653183 81.74895191 C4.44159347 81.7563262 3.51786864 81.76370048 2.56615216 81.77129823 C1.30502013 81.76048842 1.30502013 81.76048842 0.01841068 81.74946022 C-0.70842905 81.74951524 -1.43526877 81.74957025 -2.18413395 81.74962693 C-4.6844637 81.25864908 -5.57038874 80.38933265 -7.09331512 78.37473011 C-7.47426605 75.1868639 -7.47426605 75.1868639 -7.48149872 71.19699574 C-7.48938416 70.10629025 -7.48938416 70.10629025 -7.49742889 68.9935503 C-7.51063654 66.58914195 -7.50188851 64.18539524 -7.49175262 61.78098011 C-7.49377315 60.11093487 -7.49668441 58.44089049 -7.50045013 56.77084827 C-7.50487451 53.27039663 -7.4984389 49.7701746 -7.48442841 46.26974964 C-7.46733631 41.7803288 -7.47717691 37.29144597 -7.4951458 32.80204487 C-7.50598066 29.35338752 -7.5025387 25.90485796 -7.49476242 22.45619678 C-7.49275958 20.80077011 -7.49522263 19.14533188 -7.50220108 17.48991871 C-7.50981084 15.17712085 -7.498219 12.86519715 -7.48149872 10.55246449 C-7.47911194 9.23580799 -7.47672516 7.9191515 -7.47426605 6.56259632 C-7.09331512 3.37473011 -7.09331512 3.37473011 -5.82533789 1.6989091 C-3.70376131 0.07690552 -2.64865107 -0.00020147 0 0 Z " fill="#FEFCFC" transform="translate(375.0933151245117,579.6252698898315)"/>
<path d="M0 0 C2.50715204 0.0003644 5.01430543 -0.00165069 7.52145386 -0.00592041 C13.42152973 -0.00737379 19.32069769 0.02566093 25.22056758 0.07253242 C31.23587395 0.11678862 37.25031521 0.10355293 43.26571846 0.08603287 C48.43561167 0.07570093 53.60520417 0.09020417 58.77505112 0.11241913 C61.23802222 0.12073772 63.70102635 0.12230159 66.16400528 0.11676788 C95.0366599 0.08907566 95.0366599 0.08907566 106.375 10.98046875 C114.99685885 20.27893087 118.7644554 28.71058016 118.5078125 41.45703125 C118.50215271 42.53190292 118.49649292 43.6067746 118.49066162 44.71421814 C118.46843067 48.11724067 118.4182581 51.51917551 118.3671875 54.921875 C118.34710539 57.24152116 118.32885763 59.56118396 118.3125 61.88085938 C118.27202626 67.54111165 118.19370725 73.19903876 118.1171875 78.859375 C109.8671875 78.859375 101.6171875 78.859375 93.1171875 78.859375 C93.07851563 73.96544922 93.07851563 73.96544922 93.0390625 68.97265625 C93.00063676 65.8085878 92.9554781 62.64468202 92.90966797 59.48071289 C92.8814636 57.28385194 92.86024643 55.08688961 92.84619141 52.88989258 C92.82475501 49.7294527 92.7780997 46.57023104 92.7265625 43.41015625 C92.72471954 41.93957512 92.72471954 41.93957512 92.72283936 40.43928528 C92.63239388 36.21677982 92.50677836 33.54446623 90.39160156 29.82495117 C85.18189987 25.32266389 79.91956936 25.56701889 73.35742188 25.5847168 C72.37961258 25.57960587 71.40180328 25.57449493 70.3943634 25.56922913 C67.16649229 25.55534404 63.9388349 25.55628889 60.7109375 25.55859375 C58.46561605 25.55470667 56.22029534 25.55037197 53.97497559 25.54560852 C49.27089045 25.53814896 44.56688038 25.53843603 39.86279297 25.54370117 C33.83343542 25.5495001 27.80438463 25.5325531 21.77507782 25.5093565 C17.13912153 25.49462968 12.50323933 25.49374596 7.86726379 25.49686623 C5.6441029 25.49635264 3.4209379 25.49110795 1.19779968 25.48105431 C-1.90935257 25.46872576 -5.01590432 25.47545998 -8.12304688 25.48706055 C-9.04163986 25.47941681 -9.96023285 25.47177307 -10.90666199 25.46389771 C-15.72886248 25.50371564 -18.96916117 25.72032567 -22.8828125 28.859375 C-26.77469623 33.35214466 -26.35598744 38.32287431 -26.39453125 43.97265625 C-26.41248245 44.94220749 -26.43043365 45.91175873 -26.44892883 46.91069031 C-26.50297299 49.99770806 -26.53690897 53.0845717 -26.5703125 56.171875 C-26.60349074 58.26890162 -26.63798087 60.36590793 -26.67382812 62.46289062 C-26.7611585 67.59507355 -26.82127812 72.72655886 -26.8828125 77.859375 C-35.1328125 77.859375 -43.3828125 77.859375 -51.8828125 77.859375 C-51.99798467 70.49347476 -52.09741587 63.13073372 -52.1574707 55.76464844 C-52.18252043 53.26226174 -52.21656992 50.75994752 -52.26000977 48.2578125 C-52.32107911 44.64825493 -52.34911924 41.03966981 -52.37109375 37.4296875 C-52.39690018 36.32199005 -52.4227066 35.2142926 -52.44929504 34.07302856 C-52.4525182 25.02336081 -49.95502744 18.01593716 -43.9453125 11.171875 C-30.70201607 -0.61956922 -16.88396266 -0.15494899 0 0 Z " fill="#FEFDFD"/>
</svg>
