<svg xmlns="http://www.w3.org/2000/svg" viewBox="0 0 48 48" width="28" height="28">
  <path fill="#FFC107" d="M43.611,20.083H42V20H24v8h11.303c-1.649,4.657-6.08,8-11.303,8c-6.627,0-12-5.373-12-12 s5.373-12,12-12c3.059,0,5.842,1.156,7.961,3.039l5.657-5.657C33.64,6.053,29.084,4,24,4C12.955,4,4,12.955,4,24 s8.955,20,20,20s20-8.955,20-20C44,22.659,43.862,21.35,43.611,20.083z"/>
  <path fill="#FF3D00" d="M6.306,14.691l6.571,4.819C14.655,16.108,18.961,14,24,14c3.059,0,5.842,1.156,7.961,3.039l5.657-5.657 C33.64,6.053,29.084,4,24,4C16.318,4,9.656,8.337,6.306,14.691z"/>
  <path fill="#4CAF50" d="M24,44c4.958,0,9.449-1.897,12.837-4.993l-5.926-5.017C29.861,35.091,27.082,36,24,36 c-5.204,0-9.619-3.317-11.278-7.957l-6.49,5.004C9.542,39.556,16.227,44,24,44z"/>
  <path fill="#1976D2" d="M43.611,20.083H42V20H24v8h11.303c-0.792,2.237-2.231,4.166-4.092,5.59l0.003-0.002l5.926,5.017 C35.842,40.574,44,36,44,24C44,22.659,43.862,21.35,43.611,20.083z"/>
</svg>


