
<svg width="20px" height="20px" viewBox="0 0 24 24" fill="none" xmlns="http://www.w3.org/2000/svg">
<path fill-rule="evenodd" clip-rule="evenodd" d="M16.7744 5.6944C16.7363 5.60548 16.6966 5.55984 16.5688 5.4321C16.2759 5.13921 15.8011 5.13921 15.5082 5.4321C15.2153 5.72499 15.2153 6.19987 15.5082 6.49276L16.0385 7.02309L14.3937 8.66785C14.6008 8.80477 14.7964 8.96297 14.9778 9.14441C15.1593 9.32586 15.3175 9.52145 15.4544 9.72851L17.0992 8.08375L17.6295 8.61408C17.9224 8.90698 18.3973 8.90698 18.6901 8.61408C18.983 8.32119 18.983 7.84632 18.6901 7.55342C18.5624 7.42569 18.5168 7.38595 18.4278 7.34785C18.3239 7.30328 18.1044 7.24276 17.6295 7.24276H16.8795V6.49276C16.8795 6.01789 16.819 5.79839 16.7744 5.6944ZM16.0704 11.2338C16.2803 12.2047 16.2235 13.2635 16.0238 14.2423C15.6574 16.0382 14.7598 17.8477 13.6761 18.9314C11.4331 21.1744 7.74093 20.9994 5.43189 18.6904C3.12284 16.3813 2.94784 12.6891 5.19083 10.4461C6.2745 9.36246 8.084 8.46482 9.87993 8.09842C10.8588 7.89872 11.9175 7.84191 12.8885 8.0518L14.0077 6.93256C13.6082 6.09622 13.7548 5.06417 14.4475 4.37144C15.3262 3.49276 16.7508 3.49276 17.6295 4.37144C17.633 4.37498 17.6366 4.37857 17.6403 4.38222C17.7785 4.52028 17.9965 4.73805 18.1531 5.10352C18.2384 5.30253 18.2986 5.52701 18.3353 5.78692C18.5952 5.82368 18.8197 5.88384 19.0187 5.96913C19.3842 6.12576 19.602 6.34377 19.74 6.48198C19.7437 6.48563 19.7473 6.48922 19.7508 6.49276C20.6295 7.37144 20.6295 8.79606 19.7508 9.67474C19.0581 10.3675 18.026 10.5141 17.1897 10.1145L16.0704 11.2338ZM10.1798 9.56815C8.60741 9.88893 7.08494 10.6733 6.25149 11.5068C4.66024 13.098 4.70109 15.8382 6.49255 17.6297C8.28401 19.4212 11.0242 19.462 12.6155 17.8708C13.4489 17.0373 14.2333 15.5148 14.5541 13.9425C14.8806 12.3422 14.6783 10.9662 13.9172 10.2051C13.156 9.4439 11.7801 9.24167 10.1798 9.56815Z" fill="currentColor"/>
</svg>